# xmcd
#
# Track frame offsets: 
#        150
#        14690
#        28617
#        44127
#        60142
#        73145
#        85655
#        97530
#        112637
#        127227
#        141627
#        155262
#        168697
#        181897
#        196502
#        211110
#        224257
#        238502
#        251420
#        266415
#        279757
#
# Disc length: 3908 seconds
#
# Revision: 3
# Processed by: cddbd v1.5.2PL0 Copyright (c) Steve Scherf et al.
# Submitted via: ExactAudioCopy v0.95b2
#
DISCID=1c0f4215
DTITLE=Bessie Smith - The Complete Recordings Vol. 3 (Disk 1)
DYEAR=1992
DGENRE=Blues
TTITLE0=Red Mountain Blues
TTITLE1=Golden Rule Blues
TTITLE2=Lonesome Desert Blues
TTITLE3=Them "Has Been" Blues
TTITLE4=Squeeze Me
TTITLE5=What's The Matter Now?
TTITLE6=I Want Every Bit Of It
TTITLE7=Jazzbo Brown From Memphis Town
TTITLE8=The Gin House Blues
TTITLE9=Money Blues
TTITLE10=Baby Doll
TTITLE11=Hard Driving Papa
TTITLE12=Lost Your Head Blues
TTITLE13=Hard Time Blues
TTITLE14=Honey Man Blues
TTITLE15=One And Two Blues
TTITLE16=Young Woman's Blues
TTITLE17=Preachin' The Blues
TTITLE18=Back Water Blues
TTITLE19=After You've Gone
TTITLE20=Alexander's Ragtime Band
EXTD=YEAR: 1992
EXTT0=
EXTT1=
EXTT2=
EXTT3=
EXTT4=
EXTT5=
EXTT6=
EXTT7=
EXTT8=
EXTT9=
EXTT10=
EXTT11=
EXTT12=
EXTT13=
EXTT14=
EXTT15=
EXTT16=
EXTT17=
EXTT18=
EXTT19=
EXTT20=
PLAYORDER=
